<svg width="23" height="26" viewBox="0 0 23 26" fill="none" xmlns="http://www.w3.org/2000/svg">
<path d="M10.193 0.134807C10.7033 -0.0449358 11.266 -0.0449358 11.7893 0.134807L20.4119 3.02727C21.3801 3.34597 22.0343 4.23958 22.0343 5.23391L22.0999 13.8629C22.1128 16.4762 21.1577 19.013 19.4044 21.0029C18.6062 21.9207 17.5726 22.6983 16.2641 23.3995L11.6192 25.8853C11.4753 25.9618 11.3183 26 11.1613 26C11.0043 26 10.8342 25.9618 10.6902 25.8853L6.00607 23.4632C4.68455 22.7748 3.6509 22.01 2.83967 21.1049C1.06021 19.1417 0.0658014 16.6049 0.0527171 13.9916L0.000187174 5.36011C-0.0127044 4.36579 0.64151 3.47472 1.59666 3.142L10.193 0.134807ZM9.27714 9.56687C8.89769 9.19719 8.28273 9.19719 7.8902 9.56687C7.51076 9.95058 7.51076 10.5497 7.8902 10.9194L9.65658 12.6391L7.8902 14.3613C7.51076 14.731 7.51076 15.3429 7.8902 15.7126C8.08647 15.9038 8.33507 15.9917 8.58367 15.9917C8.84536 15.9917 9.09396 15.9038 9.27714 15.7126L11.0435 13.9916L12.8099 15.7126C13.0062 15.9038 13.2548 15.9917 13.5034 15.9917C13.752 15.9917 14.0136 15.9038 14.1968 15.7126C14.5763 15.3429 14.5763 14.731 14.1968 14.3613L12.4305 12.6391L14.1968 10.9194C14.5763 10.5497 14.5763 9.95058 14.1968 9.56687C13.8174 9.19719 13.1893 9.19719 12.8099 9.56687L11.0435 11.2891L9.27714 9.56687Z" fill="#FF0202"/>
</svg>
