<svg xmlns="http://www.w3.org/2000/svg" xmlns:xlink="http://www.w3.org/1999/xlink" width="1080" zoomAndPan="magnify" viewBox="0 0 810 809.999993" height="1080" preserveAspectRatio="xMidYMid meet" version="1.0"><defs><g/></defs><rect x="-81" width="972" fill="#ffffff" y="-80.999999" height="971.999992" fill-opacity="1"/><rect x="-81" width="972" fill="#ffffff" y="-80.999999" height="971.999992" fill-opacity="1"/><rect x="-81" width="972" fill="#4b2995" y="-80.999999" height="971.999992" fill-opacity="1"/><path stroke-linecap="butt" transform="matrix(0.75, 0, 0, 0.75, 39.214623, 149.161726)" fill="none" stroke-linejoin="miter" d="M 226.979472 64.836452 L 226.979472 42.253117 L 216.54718 42.253117 L 216.54718 57.706243 C 215.620097 57.846868 214.614888 58.008326 213.666971 58.008326 C 193.82322 58.008326 192.890929 27.289575 213.666971 26.565617 C 219.146138 26.424992 222.448222 27.570825 224.469055 28.4302 L 225.682597 17.997908 C 224.750305 17.716658 219.79718 15.924991 213.666971 16.133324 C 177.995095 17.435408 179.719053 68.27916 213.666971 68.27916 C 218.568013 68.27916 223.031555 67.070827 226.979472 64.836452 Z M 239.224264 67.99791 L 250.86489 67.99791 L 252.885723 62.46666 L 269.943016 62.46666 L 272.015933 67.99791 L 283.604475 67.99791 L 261.948224 14.695824 L 260.859682 14.695824 Z M 256.625307 52.826035 L 261.437807 39.440617 L 266.109682 52.826035 Z M 319.927393 38.352075 L 299.640934 15.768741 L 296.338851 15.768741 L 296.338851 67.99791 L 306.771143 67.99791 L 306.771143 39.299992 L 319.927393 53.107285 L 333.099269 39.299992 L 333.031561 67.99791 L 343.463853 67.99791 L 343.463853 15.768741 L 340.213853 15.768741 Z M 355.979479 67.99791 L 367.625313 67.99791 L 369.640938 62.46666 L 386.69823 62.46666 L 388.771147 67.99791 L 400.359689 67.99791 L 378.703438 14.695824 L 377.614896 14.695824 Z M 373.38573 52.826035 L 378.19823 39.440617 L 382.870105 52.826035 Z M 436.693024 64.695827 C 443.666983 68.27916 450.062817 68.648952 452.943025 68.440619 C 462.583651 67.930202 468.484693 61.378118 468.484693 52.826035 C 468.484693 44.622909 461.583651 40.023951 453.588859 37.070825 C 450.640942 36.049992 448.130525 34.768742 447.828442 31.888533 C 447.620108 29.008325 449.27115 26.341658 452.943025 26.128117 C 454.52115 26.060408 457.77115 25.987492 463.443026 28.289575 L 464.745109 18.367699 C 458.120109 16.065616 454.594067 16.065616 451.937817 16.206241 C 443.370108 16.628116 437.396149 23.247908 437.396149 31.888533 C 437.396149 40.513534 444.599275 44.622909 452.661775 47.576034 C 455.541984 48.576034 457.77115 49.872909 457.979484 52.826035 C 458.260734 55.617701 455.682609 57.77916 452.661775 58.008326 C 450.286775 58.21666 443.875316 58.076035 437.974274 53.898951 Z M 518.630528 67.99791 L 518.630528 16.555199 L 508.338861 16.555199 L 508.338861 37.138534 L 492.932611 37.138534 L 492.932611 16.555199 L 482.661777 16.555199 L 482.661777 67.99791 L 492.932611 67.99791 L 492.932611 47.435409 L 508.338861 47.435409 L 508.338861 67.99791 Z M 560.500322 68.721869 C 595.890949 68.721869 595.890949 15.695824 560.500322 15.695824 C 525.088862 15.695824 525.088862 68.721869 560.500322 68.721869 Z M 560.500322 58.076035 C 539.91178 58.076035 539.91178 26.268742 560.500322 26.268742 C 581.062823 26.268742 581.062823 58.076035 560.500322 58.076035 Z M 612.495117 67.99791 L 612.495117 48.362493 L 622.437825 48.362493 C 642.354493 48.362493 642.42741 16.628116 622.437825 16.628116 L 602.224283 16.628116 L 602.224283 67.99791 Z M 612.495117 38.352075 L 612.495117 26.846867 L 621.57845 26.846867 C 628.479492 26.846867 628.479492 38.352075 621.57845 38.352075 Z M 661.416994 67.99791 L 661.416994 48.362493 L 671.354494 48.362493 C 691.271162 48.362493 691.344079 16.628116 671.354494 16.628116 L 651.140952 16.628116 L 651.140952 67.99791 Z M 661.416994 38.352075 L 661.416994 26.846867 L 670.495119 26.846867 C 677.396161 26.846867 677.396161 38.352075 670.495119 38.352075 Z M 710.333663 67.99791 L 710.333663 16.555199 L 700.057621 16.555199 L 700.057621 67.99791 Z M 737.739915 40.023951 L 763.786791 69.070827 L 766.526374 69.070827 L 766.526374 16.628116 L 756.166999 16.628116 L 756.166999 45.695826 L 730.187831 15.487491 L 727.469081 15.487491 L 727.469081 67.99791 L 737.739915 67.99791 Z M 820.760752 64.836452 L 820.760752 42.253117 L 810.32846 42.253117 L 810.32846 57.706243 C 809.401376 57.846868 808.396168 58.008326 807.448251 58.008326 C 787.6045 58.008326 786.672209 27.289575 807.448251 26.565617 C 812.927418 26.424992 816.229502 27.570825 818.250335 28.4302 L 819.463877 17.997908 C 818.531585 17.716658 813.57846 15.924991 807.448251 16.133324 C 771.776375 17.435408 773.500333 68.27916 807.448251 68.27916 C 812.349293 68.27916 816.812835 67.070827 820.760752 64.836452 Z M 820.760752 64.836452 " stroke="#ffffff" stroke-width="2.698009" stroke-opacity="1" stroke-miterlimit="4"/><path stroke-linecap="butt" transform="matrix(0.75, 0, 0, 0.75, 39.214623, 212.805916)" fill="none" stroke-linejoin="miter" d="M 226.979472 64.836906 L 226.979472 42.253572 L 216.54718 42.253572 L 216.54718 57.706698 C 215.620097 57.847323 214.614888 58.008781 213.666971 58.008781 C 193.82322 58.008781 192.890929 27.290029 213.666971 26.566071 C 219.146138 26.425446 222.448222 27.571279 224.469055 28.430654 L 225.682597 17.998362 C 224.750305 17.717112 219.79718 15.925445 213.666971 16.133779 C 177.995095 17.435862 179.719053 68.279615 213.666971 68.279615 C 218.568013 68.279615 223.031555 67.071281 226.979472 64.836906 Z M 239.224264 67.998365 L 250.86489 67.998365 L 252.885723 62.467114 L 269.943016 62.467114 L 272.015933 67.998365 L 283.604475 67.998365 L 261.948224 14.696279 L 260.859682 14.696279 Z M 256.625307 52.826489 L 261.437807 39.441072 L 266.109682 52.826489 Z M 319.927393 38.35253 L 299.640934 15.763987 L 296.338851 15.763987 L 296.338851 67.998365 L 306.771143 67.998365 L 306.771143 39.300447 L 319.927393 53.107739 L 333.099269 39.300447 L 333.031561 67.998365 L 343.463853 67.998365 L 343.463853 15.763987 L 340.213853 15.763987 Z M 355.979479 67.998365 L 367.625313 67.998365 L 369.640938 62.467114 L 386.69823 62.467114 L 388.771147 67.998365 L 400.359689 67.998365 L 378.703438 14.696279 L 377.614896 14.696279 Z M 373.38573 52.826489 L 378.19823 39.441072 L 382.870105 52.826489 Z M 436.693024 64.696281 C 443.666983 68.279615 450.062817 68.649406 452.943025 68.441073 C 462.583651 67.930656 468.484693 61.378573 468.484693 52.826489 C 468.484693 44.623364 461.583651 40.019197 453.588859 37.07128 C 450.640942 36.050446 448.130525 34.769196 447.828442 31.888988 C 447.620108 29.008779 449.27115 26.336904 452.943025 26.128571 C 454.52115 26.060863 457.77115 25.987946 463.443026 28.290029 L 464.745109 18.368154 C 458.120109 16.06607 454.594067 16.06607 451.937817 16.206695 C 443.370108 16.628571 437.396149 23.248363 437.396149 31.888988 C 437.396149 40.513988 444.599275 44.623364 452.661775 47.57128 C 455.541984 48.576489 457.77115 49.873364 457.979484 52.826489 C 458.260734 55.618156 455.682609 57.779614 452.661775 58.008781 C 450.286775 58.217114 443.875316 58.076489 437.974274 53.894197 Z M 518.630528 67.998365 L 518.630528 16.555654 L 508.338861 16.555654 L 508.338861 37.138988 L 492.932611 37.138988 L 492.932611 16.555654 L 482.661777 16.555654 L 482.661777 67.998365 L 492.932611 67.998365 L 492.932611 47.430655 L 508.338861 47.430655 L 508.338861 67.998365 Z M 560.500322 68.722323 C 595.890949 68.722323 595.890949 15.696279 560.500322 15.696279 C 525.088862 15.696279 525.088862 68.722323 560.500322 68.722323 Z M 560.500322 58.076489 C 539.91178 58.076489 539.91178 26.269196 560.500322 26.269196 C 581.062823 26.269196 581.062823 58.076489 560.500322 58.076489 Z M 612.495117 67.998365 L 612.495117 48.362947 L 622.437825 48.362947 C 642.354493 48.362947 642.42741 16.628571 622.437825 16.628571 L 602.224283 16.628571 L 602.224283 67.998365 Z M 612.495117 38.35253 L 612.495117 26.847321 L 621.57845 26.847321 C 628.479492 26.847321 628.479492 38.35253 621.57845 38.35253 Z M 661.416994 67.998365 L 661.416994 48.362947 L 671.354494 48.362947 C 691.271162 48.362947 691.344079 16.628571 671.354494 16.628571 L 651.140952 16.628571 L 651.140952 67.998365 Z M 661.416994 38.35253 L 661.416994 26.847321 L 670.495119 26.847321 C 677.396161 26.847321 677.396161 38.35253 670.495119 38.35253 Z M 710.333663 67.998365 L 710.333663 16.555654 L 700.057621 16.555654 L 700.057621 67.998365 Z M 737.739915 40.019197 L 763.786791 69.071281 L 766.526374 69.071281 L 766.526374 16.628571 L 756.166999 16.628571 L 756.166999 45.69628 L 730.187831 15.482737 L 727.469081 15.482737 L 727.469081 67.998365 L 737.739915 67.998365 Z M 820.760752 64.836906 L 820.760752 42.253572 L 810.32846 42.253572 L 810.32846 57.706698 C 809.401376 57.847323 808.396168 58.008781 807.448251 58.008781 C 787.6045 58.008781 786.672209 27.290029 807.448251 26.566071 C 812.927418 26.425446 816.229502 27.571279 818.250335 28.430654 L 819.463877 17.998362 C 818.531585 17.717112 813.57846 15.925445 807.448251 16.133779 C 771.776375 17.435862 773.500333 68.279615 807.448251 68.279615 C 812.349293 68.279615 816.812835 67.071281 820.760752 64.836906 Z M 820.760752 64.836906 " stroke="#ffffff" stroke-width="2.698009" stroke-opacity="1" stroke-miterlimit="4"/><g fill="#ffffff" fill-opacity="1"><g transform="translate(177.296651, 135.794831)"><g><path d="M 32.15625 -2.375 L 32.15625 -19.316406 L 24.332031 -19.316406 L 24.332031 -7.714844 C 23.632812 -7.609375 22.875 -7.5 22.175781 -7.5 C 7.285156 -7.5 6.582031 -30.539062 22.175781 -31.078125 C 26.277344 -31.1875 28.757812 -30.324219 30.269531 -29.675781 L 31.1875 -37.5 C 30.484375 -37.714844 26.761719 -39.0625 22.175781 -38.902344 C -4.585938 -37.929688 -3.292969 0.214844 22.175781 0.214844 C 25.84375 0.214844 29.191406 -0.703125 32.15625 -2.375 Z M 32.15625 -2.375 "/></g></g></g><g fill="#ffffff" fill-opacity="1"><g transform="translate(217.762071, 135.794831)"><g><path d="M 0.863281 0 L 9.605469 0 L 11.113281 -4.15625 L 23.902344 -4.15625 L 25.464844 0 L 34.152344 0 L 17.914062 -39.980469 L 17.105469 -39.980469 Z M 13.921875 -11.382812 L 17.535156 -21.421875 L 21.042969 -11.382812 Z M 13.921875 -11.382812 "/></g></g></g><g fill="#ffffff" fill-opacity="1"><g transform="translate(257.148427, 135.794831)"><g><path d="M 22.011719 -22.230469 L 6.796875 -39.171875 L 4.316406 -39.171875 L 4.316406 0 L 12.140625 0 L 12.140625 -21.527344 L 22.011719 -11.167969 L 31.886719 -21.527344 L 31.832031 0 L 39.65625 0 L 39.65625 -39.171875 L 37.230469 -39.171875 Z M 22.011719 -22.230469 "/></g></g></g><g fill="#ffffff" fill-opacity="1"><g transform="translate(305.329139, 135.794831)"><g><path d="M 0.863281 0 L 9.605469 0 L 11.113281 -4.15625 L 23.902344 -4.15625 L 25.464844 0 L 34.152344 0 L 17.914062 -39.980469 L 17.105469 -39.980469 Z M 13.921875 -11.382812 L 17.535156 -21.421875 L 21.042969 -11.382812 Z M 13.921875 -11.382812 "/></g></g></g><g fill="#ffffff" fill-opacity="1"><g transform="translate(344.71549, 135.794831)"><g/></g></g><g fill="#ffffff" fill-opacity="1"><g transform="translate(364.193127, 135.794831)"><g><path d="M 2.535156 -2.480469 C 7.769531 0.214844 12.570312 0.484375 14.730469 0.324219 C 21.960938 -0.0546875 26.382812 -4.964844 26.382812 -11.382812 C 26.382812 -17.535156 21.203125 -20.988281 15.214844 -23.199219 C 13.003906 -23.957031 11.113281 -24.925781 10.898438 -27.085938 C 10.738281 -29.242188 11.976562 -31.238281 14.730469 -31.402344 C 15.917969 -31.457031 18.34375 -31.507812 22.605469 -29.78125 L 23.578125 -37.230469 C 18.613281 -38.957031 15.96875 -38.957031 13.972656 -38.847656 C 7.554688 -38.523438 3.074219 -33.558594 3.074219 -27.085938 C 3.074219 -20.609375 8.472656 -17.535156 14.515625 -15.324219 C 16.671875 -14.566406 18.34375 -13.597656 18.507812 -11.382812 C 18.722656 -9.28125 16.78125 -7.660156 14.515625 -7.5 C 12.734375 -7.335938 7.929688 -7.445312 3.507812 -10.574219 Z M 2.535156 -2.480469 "/></g></g></g><g fill="#ffffff" fill-opacity="1"><g transform="translate(396.889284, 135.794831)"><g><path d="M 31.292969 0 L 31.292969 -38.578125 L 23.578125 -38.578125 L 23.578125 -23.148438 L 12.03125 -23.148438 L 12.03125 -38.578125 L 4.316406 -38.578125 L 4.316406 0 L 12.03125 0 L 12.03125 -15.429688 L 23.578125 -15.429688 L 23.578125 0 Z M 31.292969 0 "/></g></g></g><g fill="#ffffff" fill-opacity="1"><g transform="translate(436.70726, 135.794831)"><g><path d="M 22.875 0.539062 C 49.421875 0.539062 49.421875 -39.226562 22.875 -39.226562 C -3.667969 -39.226562 -3.667969 0.539062 22.875 0.539062 Z M 22.875 -7.445312 C 7.445312 -7.445312 7.445312 -31.292969 22.875 -31.292969 C 38.308594 -31.292969 38.308594 -7.445312 22.875 -7.445312 Z M 22.875 -7.445312 "/></g></g></g><g fill="#ffffff" fill-opacity="1"><g transform="translate(486.560537, 135.794831)"><g><path d="M 12.03125 0 L 12.03125 -14.730469 L 19.476562 -14.730469 C 34.421875 -14.730469 34.476562 -38.523438 19.476562 -38.523438 L 4.316406 -38.523438 L 4.316406 0 Z M 12.03125 -22.230469 L 12.03125 -30.863281 L 18.832031 -30.863281 C 24.011719 -30.863281 24.011719 -22.230469 18.832031 -22.230469 Z M 12.03125 -22.230469 "/></g></g></g><g fill="#ffffff" fill-opacity="1"><g transform="translate(523.24924, 135.794831)"><g><path d="M 12.03125 0 L 12.03125 -14.730469 L 19.476562 -14.730469 C 34.421875 -14.730469 34.476562 -38.523438 19.476562 -38.523438 L 4.316406 -38.523438 L 4.316406 0 Z M 12.03125 -22.230469 L 12.03125 -30.863281 L 18.832031 -30.863281 C 24.011719 -30.863281 24.011719 -22.230469 18.832031 -22.230469 Z M 12.03125 -22.230469 "/></g></g></g><g fill="#ffffff" fill-opacity="1"><g transform="translate(559.937944, 135.794831)"><g><path d="M 12.03125 0 L 12.03125 -38.578125 L 4.316406 -38.578125 L 4.316406 0 Z M 12.03125 0 "/></g></g></g><g fill="#ffffff" fill-opacity="1"><g transform="translate(580.494645, 135.794831)"><g><path d="M 12.03125 -20.988281 L 31.5625 0.808594 L 33.613281 0.808594 L 33.613281 -38.523438 L 25.84375 -38.523438 L 25.84375 -16.726562 L 6.367188 -39.386719 L 4.316406 -39.386719 L 4.316406 0 L 12.03125 0 Z M 12.03125 -20.988281 "/></g></g></g><g fill="#ffffff" fill-opacity="1"><g transform="translate(622.632613, 135.794831)"><g><path d="M 32.15625 -2.375 L 32.15625 -19.316406 L 24.332031 -19.316406 L 24.332031 -7.714844 C 23.632812 -7.609375 22.875 -7.5 22.175781 -7.5 C 7.285156 -7.5 6.582031 -30.539062 22.175781 -31.078125 C 26.277344 -31.1875 28.757812 -30.324219 30.269531 -29.675781 L 31.1875 -37.5 C 30.484375 -37.714844 26.761719 -39.0625 22.175781 -38.902344 C -4.585938 -37.929688 -3.292969 0.214844 22.175781 0.214844 C 25.84375 0.214844 29.191406 -0.703125 32.15625 -2.375 Z M 32.15625 -2.375 "/></g></g></g><g fill="#ffffff" fill-opacity="1"><g transform="translate(177.296651, 393.427471)"><g><path d="M 32.15625 -2.375 L 32.15625 -19.316406 L 24.332031 -19.316406 L 24.332031 -7.714844 C 23.632812 -7.609375 22.875 -7.5 22.175781 -7.5 C 7.285156 -7.5 6.582031 -30.539062 22.175781 -31.078125 C 26.277344 -31.1875 28.757812 -30.324219 30.269531 -29.675781 L 31.1875 -37.5 C 30.484375 -37.714844 26.761719 -39.0625 22.175781 -38.902344 C -4.585938 -37.929688 -3.292969 0.214844 22.175781 0.214844 C 25.84375 0.214844 29.191406 -0.703125 32.15625 -2.375 Z M 32.15625 -2.375 "/></g></g></g><g fill="#ffffff" fill-opacity="1"><g transform="translate(217.762071, 393.427471)"><g><path d="M 0.863281 0 L 9.605469 0 L 11.113281 -4.15625 L 23.902344 -4.15625 L 25.464844 0 L 34.152344 0 L 17.914062 -39.980469 L 17.105469 -39.980469 Z M 13.921875 -11.382812 L 17.535156 -21.421875 L 21.042969 -11.382812 Z M 13.921875 -11.382812 "/></g></g></g><g fill="#ffffff" fill-opacity="1"><g transform="translate(257.148427, 393.427471)"><g><path d="M 22.011719 -22.230469 L 6.796875 -39.171875 L 4.316406 -39.171875 L 4.316406 0 L 12.140625 0 L 12.140625 -21.527344 L 22.011719 -11.167969 L 31.886719 -21.527344 L 31.832031 0 L 39.65625 0 L 39.65625 -39.171875 L 37.230469 -39.171875 Z M 22.011719 -22.230469 "/></g></g></g><g fill="#ffffff" fill-opacity="1"><g transform="translate(305.329139, 393.427471)"><g><path d="M 0.863281 0 L 9.605469 0 L 11.113281 -4.15625 L 23.902344 -4.15625 L 25.464844 0 L 34.152344 0 L 17.914062 -39.980469 L 17.105469 -39.980469 Z M 13.921875 -11.382812 L 17.535156 -21.421875 L 21.042969 -11.382812 Z M 13.921875 -11.382812 "/></g></g></g><g fill="#ffffff" fill-opacity="1"><g transform="translate(344.71549, 393.427471)"><g/></g></g><g fill="#ffffff" fill-opacity="1"><g transform="translate(364.193127, 393.427471)"><g><path d="M 2.535156 -2.480469 C 7.769531 0.214844 12.570312 0.484375 14.730469 0.324219 C 21.960938 -0.0546875 26.382812 -4.964844 26.382812 -11.382812 C 26.382812 -17.535156 21.203125 -20.988281 15.214844 -23.199219 C 13.003906 -23.957031 11.113281 -24.925781 10.898438 -27.085938 C 10.738281 -29.242188 11.976562 -31.238281 14.730469 -31.402344 C 15.917969 -31.457031 18.34375 -31.507812 22.605469 -29.78125 L 23.578125 -37.230469 C 18.613281 -38.957031 15.96875 -38.957031 13.972656 -38.847656 C 7.554688 -38.523438 3.074219 -33.558594 3.074219 -27.085938 C 3.074219 -20.609375 8.472656 -17.535156 14.515625 -15.324219 C 16.671875 -14.566406 18.34375 -13.597656 18.507812 -11.382812 C 18.722656 -9.28125 16.78125 -7.660156 14.515625 -7.5 C 12.734375 -7.335938 7.929688 -7.445312 3.507812 -10.574219 Z M 2.535156 -2.480469 "/></g></g></g><g fill="#ffffff" fill-opacity="1"><g transform="translate(396.889284, 393.427471)"><g><path d="M 31.292969 0 L 31.292969 -38.578125 L 23.578125 -38.578125 L 23.578125 -23.148438 L 12.03125 -23.148438 L 12.03125 -38.578125 L 4.316406 -38.578125 L 4.316406 0 L 12.03125 0 L 12.03125 -15.429688 L 23.578125 -15.429688 L 23.578125 0 Z M 31.292969 0 "/></g></g></g><g fill="#ffffff" fill-opacity="1"><g transform="translate(436.70726, 393.427471)"><g><path d="M 22.875 0.539062 C 49.421875 0.539062 49.421875 -39.226562 22.875 -39.226562 C -3.667969 -39.226562 -3.667969 0.539062 22.875 0.539062 Z M 22.875 -7.445312 C 7.445312 -7.445312 7.445312 -31.292969 22.875 -31.292969 C 38.308594 -31.292969 38.308594 -7.445312 22.875 -7.445312 Z M 22.875 -7.445312 "/></g></g></g><g fill="#ffffff" fill-opacity="1"><g transform="translate(486.560537, 393.427471)"><g><path d="M 12.03125 0 L 12.03125 -14.730469 L 19.476562 -14.730469 C 34.421875 -14.730469 34.476562 -38.523438 19.476562 -38.523438 L 4.316406 -38.523438 L 4.316406 0 Z M 12.03125 -22.230469 L 12.03125 -30.863281 L 18.832031 -30.863281 C 24.011719 -30.863281 24.011719 -22.230469 18.832031 -22.230469 Z M 12.03125 -22.230469 "/></g></g></g><g fill="#ffffff" fill-opacity="1"><g transform="translate(523.24924, 393.427471)"><g><path d="M 12.03125 0 L 12.03125 -14.730469 L 19.476562 -14.730469 C 34.421875 -14.730469 34.476562 -38.523438 19.476562 -38.523438 L 4.316406 -38.523438 L 4.316406 0 Z M 12.03125 -22.230469 L 12.03125 -30.863281 L 18.832031 -30.863281 C 24.011719 -30.863281 24.011719 -22.230469 18.832031 -22.230469 Z M 12.03125 -22.230469 "/></g></g></g><g fill="#ffffff" fill-opacity="1"><g transform="translate(559.937944, 393.427471)"><g><path d="M 12.03125 0 L 12.03125 -38.578125 L 4.316406 -38.578125 L 4.316406 0 Z M 12.03125 0 "/></g></g></g><g fill="#ffffff" fill-opacity="1"><g transform="translate(580.494645, 393.427471)"><g><path d="M 12.03125 -20.988281 L 31.5625 0.808594 L 33.613281 0.808594 L 33.613281 -38.523438 L 25.84375 -38.523438 L 25.84375 -16.726562 L 6.367188 -39.386719 L 4.316406 -39.386719 L 4.316406 0 L 12.03125 0 Z M 12.03125 -20.988281 "/></g></g></g><g fill="#ffffff" fill-opacity="1"><g transform="translate(622.632613, 393.427471)"><g><path d="M 32.15625 -2.375 L 32.15625 -19.316406 L 24.332031 -19.316406 L 24.332031 -7.714844 C 23.632812 -7.609375 22.875 -7.5 22.175781 -7.5 C 7.285156 -7.5 6.582031 -30.539062 22.175781 -31.078125 C 26.277344 -31.1875 28.757812 -30.324219 30.269531 -29.675781 L 31.1875 -37.5 C 30.484375 -37.714844 26.761719 -39.0625 22.175781 -38.902344 C -4.585938 -37.929688 -3.292969 0.214844 22.175781 0.214844 C 25.84375 0.214844 29.191406 -0.703125 32.15625 -2.375 Z M 32.15625 -2.375 "/></g></g></g><path stroke-linecap="butt" transform="matrix(0.75, 0, 0, 0.75, 39.214623, 406.794336)" fill="none" stroke-linejoin="miter" d="M 226.979472 64.836723 L 226.979472 42.253388 L 216.54718 42.253388 L 216.54718 57.706514 C 215.620097 57.847139 214.614888 58.008597 213.666971 58.008597 C 193.82322 58.008597 192.890929 27.289846 213.666971 26.565887 C 219.146138 26.425262 222.448222 27.571096 224.469055 28.430471 L 225.682597 17.998179 C 224.750305 17.716929 219.79718 15.925262 213.666971 16.133595 C 177.995095 17.435678 179.719053 68.279431 213.666971 68.279431 C 218.568013 68.279431 223.031555 67.071098 226.979472 64.836723 Z M 239.224264 67.998181 L 250.86489 67.998181 L 252.885723 62.466931 L 269.943016 62.466931 L 272.015933 67.998181 L 283.604475 67.998181 L 261.948224 14.696095 L 260.859682 14.696095 Z M 256.625307 52.826305 L 261.437807 39.440888 L 266.109682 52.826305 Z M 319.927393 38.352346 L 299.640934 15.763803 L 296.338851 15.763803 L 296.338851 67.998181 L 306.771143 67.998181 L 306.771143 39.300263 L 319.927393 53.107555 L 333.099269 39.300263 L 333.031561 67.998181 L 343.463853 67.998181 L 343.463853 15.763803 L 340.213853 15.763803 Z M 355.979479 67.998181 L 367.625313 67.998181 L 369.640938 62.466931 L 386.69823 62.466931 L 388.771147 67.998181 L 400.359689 67.998181 L 378.703438 14.696095 L 377.614896 14.696095 Z M 373.38573 52.826305 L 378.19823 39.440888 L 382.870105 52.826305 Z M 436.693024 64.696098 C 443.666983 68.279431 450.062817 68.649223 452.943025 68.440889 C 462.583651 67.930473 468.484693 61.378389 468.484693 52.826305 C 468.484693 44.62318 461.583651 40.019013 453.588859 37.071096 C 450.640942 36.050263 448.130525 34.769013 447.828442 31.888804 C 447.620108 29.008596 449.27115 26.341929 452.943025 26.128387 C 454.52115 26.060679 457.77115 25.987762 463.443026 28.289846 L 464.745109 18.36797 C 458.120109 16.065887 454.594067 16.065887 451.937817 16.206512 C 443.370108 16.628387 437.396149 23.248179 437.396149 31.888804 C 437.396149 40.513805 444.599275 44.62318 452.661775 47.571097 C 455.541984 48.576305 457.77115 49.87318 457.979484 52.826305 C 458.260734 55.617972 455.682609 57.779431 452.661775 58.008597 C 450.286775 58.216931 443.875316 58.076306 437.974274 53.894014 Z M 518.630528 67.998181 L 518.630528 16.55547 L 508.338861 16.55547 L 508.338861 37.138804 L 492.932611 37.138804 L 492.932611 16.55547 L 482.661777 16.55547 L 482.661777 67.998181 L 492.932611 67.998181 L 492.932611 47.43568 L 508.338861 47.43568 L 508.338861 67.998181 Z M 560.500322 68.722139 C 595.890949 68.722139 595.890949 15.696095 560.500322 15.696095 C 525.088862 15.696095 525.088862 68.722139 560.500322 68.722139 Z M 560.500322 58.076306 C 539.91178 58.076306 539.91178 26.269012 560.500322 26.269012 C 581.062823 26.269012 581.062823 58.076306 560.500322 58.076306 Z M 612.495117 67.998181 L 612.495117 48.362763 L 622.437825 48.362763 C 642.354493 48.362763 642.42741 16.628387 622.437825 16.628387 L 602.224283 16.628387 L 602.224283 67.998181 Z M 612.495117 38.352346 L 612.495117 26.847137 L 621.57845 26.847137 C 628.479492 26.847137 628.479492 38.352346 621.57845 38.352346 Z M 661.416994 67.998181 L 661.416994 48.362763 L 671.354494 48.362763 C 691.271162 48.362763 691.344079 16.628387 671.354494 16.628387 L 651.140952 16.628387 L 651.140952 67.998181 Z M 661.416994 38.352346 L 661.416994 26.847137 L 670.495119 26.847137 C 677.396161 26.847137 677.396161 38.352346 670.495119 38.352346 Z M 710.333663 67.998181 L 710.333663 16.55547 L 700.057621 16.55547 L 700.057621 67.998181 Z M 737.739915 40.019013 L 763.786791 69.071098 L 766.526374 69.071098 L 766.526374 16.628387 L 756.166999 16.628387 L 756.166999 45.696097 L 730.187831 15.487762 L 727.469081 15.487762 L 727.469081 67.998181 L 737.739915 67.998181 Z M 820.760752 64.836723 L 820.760752 42.253388 L 810.32846 42.253388 L 810.32846 57.706514 C 809.401376 57.847139 808.396168 58.008597 807.448251 58.008597 C 787.6045 58.008597 786.672209 27.289846 807.448251 26.565887 C 812.927418 26.425262 816.229502 27.571096 818.250335 28.430471 L 819.463877 17.998179 C 818.531585 17.716929 813.57846 15.925262 807.448251 16.133595 C 771.776375 17.435678 773.500333 68.279431 807.448251 68.279431 C 812.349293 68.279431 816.812835 67.071098 820.760752 64.836723 Z M 820.760752 64.836723 " stroke="#ffffff" stroke-width="2.698009" stroke-opacity="1" stroke-miterlimit="4"/><path stroke-linecap="butt" transform="matrix(0.75, 0, 0, 0.75, 39.214623, 470.43854)" fill="none" stroke-linejoin="miter" d="M 226.979472 64.837158 L 226.979472 42.253823 L 216.54718 42.253823 L 216.54718 57.706949 C 215.620097 57.847574 214.614888 58.003824 213.666971 58.003824 C 193.82322 58.003824 192.890929 27.290281 213.666971 26.566323 C 219.146138 26.425698 222.448222 27.566323 224.469055 28.430906 L 225.682597 17.998614 C 224.750305 17.717364 219.79718 15.925697 213.666971 16.13403 C 177.995095 17.436114 179.719053 68.279866 213.666971 68.279866 C 218.568013 68.279866 223.031555 67.071533 226.979472 64.837158 Z M 239.224264 67.998616 L 250.86489 67.998616 L 252.885723 62.467366 L 269.943016 62.467366 L 272.015933 67.998616 L 283.604475 67.998616 L 261.948224 14.69653 L 260.859682 14.69653 Z M 256.625307 52.826741 L 261.437807 39.441323 L 266.109682 52.826741 Z M 319.927393 38.352781 L 299.640934 15.764239 L 296.338851 15.764239 L 296.338851 67.998616 L 306.771143 67.998616 L 306.771143 39.300698 L 319.927393 53.107991 L 333.099269 39.300698 L 333.031561 67.998616 L 343.463853 67.998616 L 343.463853 15.764239 L 340.213853 15.764239 Z M 355.979479 67.998616 L 367.625313 67.998616 L 369.640938 62.467366 L 386.69823 62.467366 L 388.771147 67.998616 L 400.359689 67.998616 L 378.703438 14.69653 L 377.614896 14.69653 Z M 373.38573 52.826741 L 378.19823 39.441323 L 382.870105 52.826741 Z M 436.693024 64.696533 C 443.666983 68.279866 450.062817 68.649658 452.943025 68.441325 C 462.583651 67.930908 468.484693 61.378824 468.484693 52.826741 C 468.484693 44.623615 461.583651 40.019448 453.588859 37.071531 C 450.640942 36.050698 448.130525 34.769448 447.828442 31.889239 C 447.620108 29.009031 449.27115 26.337156 452.943025 26.128823 C 454.52115 26.055906 457.77115 25.988198 463.443026 28.290281 L 464.745109 18.363197 C 458.120109 16.066322 454.594067 16.066322 451.937817 16.206947 C 443.370108 16.628822 437.396149 23.248614 437.396149 31.889239 C 437.396149 40.51424 444.599275 44.623615 452.661775 47.571532 C 455.541984 48.57674 457.77115 49.873615 457.979484 52.826741 C 458.260734 55.618407 455.682609 57.779866 452.661775 58.003824 C 450.286775 58.217366 443.875316 58.076741 437.974274 53.894449 Z M 518.630528 67.998616 L 518.630528 16.555905 L 508.338861 16.555905 L 508.338861 37.13924 L 492.932611 37.13924 L 492.932611 16.555905 L 482.661777 16.555905 L 482.661777 67.998616 L 492.932611 67.998616 L 492.932611 47.430907 L 508.338861 47.430907 L 508.338861 67.998616 Z M 560.500322 68.722575 C 595.890949 68.722575 595.890949 15.69653 560.500322 15.69653 C 525.088862 15.69653 525.088862 68.722575 560.500322 68.722575 Z M 560.500322 58.076741 C 539.91178 58.076741 539.91178 26.269448 560.500322 26.269448 C 581.062823 26.269448 581.062823 58.076741 560.500322 58.076741 Z M 612.495117 67.998616 L 612.495117 48.363199 L 622.437825 48.363199 C 642.354493 48.363199 642.42741 16.628822 622.437825 16.628822 L 602.224283 16.628822 L 602.224283 67.998616 Z M 612.495117 38.352781 L 612.495117 26.847573 L 621.57845 26.847573 C 628.479492 26.847573 628.479492 38.352781 621.57845 38.352781 Z M 661.416994 67.998616 L 661.416994 48.363199 L 671.354494 48.363199 C 691.271162 48.363199 691.344079 16.628822 671.354494 16.628822 L 651.140952 16.628822 L 651.140952 67.998616 Z M 661.416994 38.352781 L 661.416994 26.847573 L 670.495119 26.847573 C 677.396161 26.847573 677.396161 38.352781 670.495119 38.352781 Z M 710.333663 67.998616 L 710.333663 16.555905 L 700.057621 16.555905 L 700.057621 67.998616 Z M 737.739915 40.019448 L 763.786791 69.071533 L 766.526374 69.071533 L 766.526374 16.628822 L 756.166999 16.628822 L 756.166999 45.696532 L 730.187831 15.482989 L 727.469081 15.482989 L 727.469081 67.998616 L 737.739915 67.998616 Z M 820.760752 64.837158 L 820.760752 42.253823 L 810.32846 42.253823 L 810.32846 57.706949 C 809.401376 57.847574 808.396168 58.003824 807.448251 58.003824 C 787.6045 58.003824 786.672209 27.290281 807.448251 26.566323 C 812.927418 26.425698 816.229502 27.566323 818.250335 28.430906 L 819.463877 17.998614 C 818.531585 17.717364 813.57846 15.925697 807.448251 16.13403 C 771.776375 17.436114 773.500333 68.279866 807.448251 68.279866 C 812.349293 68.279866 816.812835 67.071533 820.760752 64.837158 Z M 820.760752 64.837158 " stroke="#ffffff" stroke-width="2.698009" stroke-opacity="1" stroke-miterlimit="4"/><g fill="#ffffff" fill-opacity="1"><g transform="translate(177.296651, 328.895483)"><g><path d="M 32.15625 -2.375 L 32.15625 -19.316406 L 24.332031 -19.316406 L 24.332031 -7.714844 C 23.632812 -7.609375 22.875 -7.5 22.175781 -7.5 C 7.285156 -7.5 6.582031 -30.539062 22.175781 -31.078125 C 26.277344 -31.1875 28.757812 -30.324219 30.269531 -29.675781 L 31.1875 -37.5 C 30.484375 -37.714844 26.761719 -39.0625 22.175781 -38.902344 C -4.585938 -37.929688 -3.292969 0.214844 22.175781 0.214844 C 25.84375 0.214844 29.191406 -0.703125 32.15625 -2.375 Z M 32.15625 -2.375 "/></g></g></g><g fill="#ffffff" fill-opacity="1"><g transform="translate(217.762071, 328.895483)"><g><path d="M 0.863281 0 L 9.605469 0 L 11.113281 -4.15625 L 23.902344 -4.15625 L 25.464844 0 L 34.152344 0 L 17.914062 -39.980469 L 17.105469 -39.980469 Z M 13.921875 -11.382812 L 17.535156 -21.421875 L 21.042969 -11.382812 Z M 13.921875 -11.382812 "/></g></g></g><g fill="#ffffff" fill-opacity="1"><g transform="translate(257.148427, 328.895483)"><g><path d="M 22.011719 -22.230469 L 6.796875 -39.171875 L 4.316406 -39.171875 L 4.316406 0 L 12.140625 0 L 12.140625 -21.527344 L 22.011719 -11.167969 L 31.886719 -21.527344 L 31.832031 0 L 39.65625 0 L 39.65625 -39.171875 L 37.230469 -39.171875 Z M 22.011719 -22.230469 "/></g></g></g><g fill="#ffffff" fill-opacity="1"><g transform="translate(305.329139, 328.895483)"><g><path d="M 0.863281 0 L 9.605469 0 L 11.113281 -4.15625 L 23.902344 -4.15625 L 25.464844 0 L 34.152344 0 L 17.914062 -39.980469 L 17.105469 -39.980469 Z M 13.921875 -11.382812 L 17.535156 -21.421875 L 21.042969 -11.382812 Z M 13.921875 -11.382812 "/></g></g></g><g fill="#ffffff" fill-opacity="1"><g transform="translate(344.71549, 328.895483)"><g/></g></g><g fill="#ffffff" fill-opacity="1"><g transform="translate(364.193127, 328.895483)"><g><path d="M 2.535156 -2.480469 C 7.769531 0.214844 12.570312 0.484375 14.730469 0.324219 C 21.960938 -0.0546875 26.382812 -4.964844 26.382812 -11.382812 C 26.382812 -17.535156 21.203125 -20.988281 15.214844 -23.199219 C 13.003906 -23.957031 11.113281 -24.925781 10.898438 -27.085938 C 10.738281 -29.242188 11.976562 -31.238281 14.730469 -31.402344 C 15.917969 -31.457031 18.34375 -31.507812 22.605469 -29.78125 L 23.578125 -37.230469 C 18.613281 -38.957031 15.96875 -38.957031 13.972656 -38.847656 C 7.554688 -38.523438 3.074219 -33.558594 3.074219 -27.085938 C 3.074219 -20.609375 8.472656 -17.535156 14.515625 -15.324219 C 16.671875 -14.566406 18.34375 -13.597656 18.507812 -11.382812 C 18.722656 -9.28125 16.78125 -7.660156 14.515625 -7.5 C 12.734375 -7.335938 7.929688 -7.445312 3.507812 -10.574219 Z M 2.535156 -2.480469 "/></g></g></g><g fill="#ffffff" fill-opacity="1"><g transform="translate(396.889284, 328.895483)"><g><path d="M 31.292969 0 L 31.292969 -38.578125 L 23.578125 -38.578125 L 23.578125 -23.148438 L 12.03125 -23.148438 L 12.03125 -38.578125 L 4.316406 -38.578125 L 4.316406 0 L 12.03125 0 L 12.03125 -15.429688 L 23.578125 -15.429688 L 23.578125 0 Z M 31.292969 0 "/></g></g></g><g fill="#ffffff" fill-opacity="1"><g transform="translate(436.70726, 328.895483)"><g><path d="M 22.875 0.539062 C 49.421875 0.539062 49.421875 -39.226562 22.875 -39.226562 C -3.667969 -39.226562 -3.667969 0.539062 22.875 0.539062 Z M 22.875 -7.445312 C 7.445312 -7.445312 7.445312 -31.292969 22.875 -31.292969 C 38.308594 -31.292969 38.308594 -7.445312 22.875 -7.445312 Z M 22.875 -7.445312 "/></g></g></g><g fill="#ffffff" fill-opacity="1"><g transform="translate(486.560537, 328.895483)"><g><path d="M 12.03125 0 L 12.03125 -14.730469 L 19.476562 -14.730469 C 34.421875 -14.730469 34.476562 -38.523438 19.476562 -38.523438 L 4.316406 -38.523438 L 4.316406 0 Z M 12.03125 -22.230469 L 12.03125 -30.863281 L 18.832031 -30.863281 C 24.011719 -30.863281 24.011719 -22.230469 18.832031 -22.230469 Z M 12.03125 -22.230469 "/></g></g></g><g fill="#ffffff" fill-opacity="1"><g transform="translate(523.24924, 328.895483)"><g><path d="M 12.03125 0 L 12.03125 -14.730469 L 19.476562 -14.730469 C 34.421875 -14.730469 34.476562 -38.523438 19.476562 -38.523438 L 4.316406 -38.523438 L 4.316406 0 Z M 12.03125 -22.230469 L 12.03125 -30.863281 L 18.832031 -30.863281 C 24.011719 -30.863281 24.011719 -22.230469 18.832031 -22.230469 Z M 12.03125 -22.230469 "/></g></g></g><g fill="#ffffff" fill-opacity="1"><g transform="translate(559.937944, 328.895483)"><g><path d="M 12.03125 0 L 12.03125 -38.578125 L 4.316406 -38.578125 L 4.316406 0 Z M 12.03125 0 "/></g></g></g><g fill="#ffffff" fill-opacity="1"><g transform="translate(580.494645, 328.895483)"><g><path d="M 12.03125 -20.988281 L 31.5625 0.808594 L 33.613281 0.808594 L 33.613281 -38.523438 L 25.84375 -38.523438 L 25.84375 -16.726562 L 6.367188 -39.386719 L 4.316406 -39.386719 L 4.316406 0 L 12.03125 0 Z M 12.03125 -20.988281 "/></g></g></g><g fill="#ffffff" fill-opacity="1"><g transform="translate(622.632613, 328.895483)"><g><path d="M 32.15625 -2.375 L 32.15625 -19.316406 L 24.332031 -19.316406 L 24.332031 -7.714844 C 23.632812 -7.609375 22.875 -7.5 22.175781 -7.5 C 7.285156 -7.5 6.582031 -30.539062 22.175781 -31.078125 C 26.277344 -31.1875 28.757812 -30.324219 30.269531 -29.675781 L 31.1875 -37.5 C 30.484375 -37.714844 26.761719 -39.0625 22.175781 -38.902344 C -4.585938 -37.929688 -3.292969 0.214844 22.175781 0.214844 C 25.84375 0.214844 29.191406 -0.703125 32.15625 -2.375 Z M 32.15625 -2.375 "/></g></g></g><g fill="#ffffff" fill-opacity="1"><g transform="translate(177.296651, 651.060107)"><g><path d="M 32.15625 -2.375 L 32.15625 -19.316406 L 24.332031 -19.316406 L 24.332031 -7.714844 C 23.632812 -7.609375 22.875 -7.5 22.175781 -7.5 C 7.285156 -7.5 6.582031 -30.539062 22.175781 -31.078125 C 26.277344 -31.1875 28.757812 -30.324219 30.269531 -29.675781 L 31.1875 -37.5 C 30.484375 -37.714844 26.761719 -39.0625 22.175781 -38.902344 C -4.585938 -37.929688 -3.292969 0.214844 22.175781 0.214844 C 25.84375 0.214844 29.191406 -0.703125 32.15625 -2.375 Z M 32.15625 -2.375 "/></g></g></g><g fill="#ffffff" fill-opacity="1"><g transform="translate(217.762071, 651.060107)"><g><path d="M 0.863281 0 L 9.605469 0 L 11.113281 -4.15625 L 23.902344 -4.15625 L 25.464844 0 L 34.152344 0 L 17.914062 -39.980469 L 17.105469 -39.980469 Z M 13.921875 -11.382812 L 17.535156 -21.421875 L 21.042969 -11.382812 Z M 13.921875 -11.382812 "/></g></g></g><g fill="#ffffff" fill-opacity="1"><g transform="translate(257.148427, 651.060107)"><g><path d="M 22.011719 -22.230469 L 6.796875 -39.171875 L 4.316406 -39.171875 L 4.316406 0 L 12.140625 0 L 12.140625 -21.527344 L 22.011719 -11.167969 L 31.886719 -21.527344 L 31.832031 0 L 39.65625 0 L 39.65625 -39.171875 L 37.230469 -39.171875 Z M 22.011719 -22.230469 "/></g></g></g><g fill="#ffffff" fill-opacity="1"><g transform="translate(305.329139, 651.060107)"><g><path d="M 0.863281 0 L 9.605469 0 L 11.113281 -4.15625 L 23.902344 -4.15625 L 25.464844 0 L 34.152344 0 L 17.914062 -39.980469 L 17.105469 -39.980469 Z M 13.921875 -11.382812 L 17.535156 -21.421875 L 21.042969 -11.382812 Z M 13.921875 -11.382812 "/></g></g></g><g fill="#ffffff" fill-opacity="1"><g transform="translate(344.71549, 651.060107)"><g/></g></g><g fill="#ffffff" fill-opacity="1"><g transform="translate(364.193127, 651.060107)"><g><path d="M 2.535156 -2.480469 C 7.769531 0.214844 12.570312 0.484375 14.730469 0.324219 C 21.960938 -0.0546875 26.382812 -4.964844 26.382812 -11.382812 C 26.382812 -17.535156 21.203125 -20.988281 15.214844 -23.199219 C 13.003906 -23.957031 11.113281 -24.925781 10.898438 -27.085938 C 10.738281 -29.242188 11.976562 -31.238281 14.730469 -31.402344 C 15.917969 -31.457031 18.34375 -31.507812 22.605469 -29.78125 L 23.578125 -37.230469 C 18.613281 -38.957031 15.96875 -38.957031 13.972656 -38.847656 C 7.554688 -38.523438 3.074219 -33.558594 3.074219 -27.085938 C 3.074219 -20.609375 8.472656 -17.535156 14.515625 -15.324219 C 16.671875 -14.566406 18.34375 -13.597656 18.507812 -11.382812 C 18.722656 -9.28125 16.78125 -7.660156 14.515625 -7.5 C 12.734375 -7.335938 7.929688 -7.445312 3.507812 -10.574219 Z M 2.535156 -2.480469 "/></g></g></g><g fill="#ffffff" fill-opacity="1"><g transform="translate(396.889284, 651.060107)"><g><path d="M 31.292969 0 L 31.292969 -38.578125 L 23.578125 -38.578125 L 23.578125 -23.148438 L 12.03125 -23.148438 L 12.03125 -38.578125 L 4.316406 -38.578125 L 4.316406 0 L 12.03125 0 L 12.03125 -15.429688 L 23.578125 -15.429688 L 23.578125 0 Z M 31.292969 0 "/></g></g></g><g fill="#ffffff" fill-opacity="1"><g transform="translate(436.70726, 651.060107)"><g><path d="M 22.875 0.539062 C 49.421875 0.539062 49.421875 -39.226562 22.875 -39.226562 C -3.667969 -39.226562 -3.667969 0.539062 22.875 0.539062 Z M 22.875 -7.445312 C 7.445312 -7.445312 7.445312 -31.292969 22.875 -31.292969 C 38.308594 -31.292969 38.308594 -7.445312 22.875 -7.445312 Z M 22.875 -7.445312 "/></g></g></g><g fill="#ffffff" fill-opacity="1"><g transform="translate(486.560537, 651.060107)"><g><path d="M 12.03125 0 L 12.03125 -14.730469 L 19.476562 -14.730469 C 34.421875 -14.730469 34.476562 -38.523438 19.476562 -38.523438 L 4.316406 -38.523438 L 4.316406 0 Z M 12.03125 -22.230469 L 12.03125 -30.863281 L 18.832031 -30.863281 C 24.011719 -30.863281 24.011719 -22.230469 18.832031 -22.230469 Z M 12.03125 -22.230469 "/></g></g></g><g fill="#ffffff" fill-opacity="1"><g transform="translate(523.24924, 651.060107)"><g><path d="M 12.03125 0 L 12.03125 -14.730469 L 19.476562 -14.730469 C 34.421875 -14.730469 34.476562 -38.523438 19.476562 -38.523438 L 4.316406 -38.523438 L 4.316406 0 Z M 12.03125 -22.230469 L 12.03125 -30.863281 L 18.832031 -30.863281 C 24.011719 -30.863281 24.011719 -22.230469 18.832031 -22.230469 Z M 12.03125 -22.230469 "/></g></g></g><g fill="#ffffff" fill-opacity="1"><g transform="translate(559.937944, 651.060107)"><g><path d="M 12.03125 0 L 12.03125 -38.578125 L 4.316406 -38.578125 L 4.316406 0 Z M 12.03125 0 "/></g></g></g><g fill="#ffffff" fill-opacity="1"><g transform="translate(580.494645, 651.060107)"><g><path d="M 12.03125 -20.988281 L 31.5625 0.808594 L 33.613281 0.808594 L 33.613281 -38.523438 L 25.84375 -38.523438 L 25.84375 -16.726562 L 6.367188 -39.386719 L 4.316406 -39.386719 L 4.316406 0 L 12.03125 0 Z M 12.03125 -20.988281 "/></g></g></g><g fill="#ffffff" fill-opacity="1"><g transform="translate(622.632613, 651.060107)"><g><path d="M 32.15625 -2.375 L 32.15625 -19.316406 L 24.332031 -19.316406 L 24.332031 -7.714844 C 23.632812 -7.609375 22.875 -7.5 22.175781 -7.5 C 7.285156 -7.5 6.582031 -30.539062 22.175781 -31.078125 C 26.277344 -31.1875 28.757812 -30.324219 30.269531 -29.675781 L 31.1875 -37.5 C 30.484375 -37.714844 26.761719 -39.0625 22.175781 -38.902344 C -4.585938 -37.929688 -3.292969 0.214844 22.175781 0.214844 C 25.84375 0.214844 29.191406 -0.703125 32.15625 -2.375 Z M 32.15625 -2.375 "/></g></g></g><g fill="#ffffff" fill-opacity="1"><g transform="translate(177.296651, 586.528118)"><g><path d="M 32.15625 -2.375 L 32.15625 -19.316406 L 24.332031 -19.316406 L 24.332031 -7.714844 C 23.632812 -7.609375 22.875 -7.5 22.175781 -7.5 C 7.285156 -7.5 6.582031 -30.539062 22.175781 -31.078125 C 26.277344 -31.1875 28.757812 -30.324219 30.269531 -29.675781 L 31.1875 -37.5 C 30.484375 -37.714844 26.761719 -39.0625 22.175781 -38.902344 C -4.585938 -37.929688 -3.292969 0.214844 22.175781 0.214844 C 25.84375 0.214844 29.191406 -0.703125 32.15625 -2.375 Z M 32.15625 -2.375 "/></g></g></g><g fill="#ffffff" fill-opacity="1"><g transform="translate(217.762071, 586.528118)"><g><path d="M 0.863281 0 L 9.605469 0 L 11.113281 -4.15625 L 23.902344 -4.15625 L 25.464844 0 L 34.152344 0 L 17.914062 -39.980469 L 17.105469 -39.980469 Z M 13.921875 -11.382812 L 17.535156 -21.421875 L 21.042969 -11.382812 Z M 13.921875 -11.382812 "/></g></g></g><g fill="#ffffff" fill-opacity="1"><g transform="translate(257.148427, 586.528118)"><g><path d="M 22.011719 -22.230469 L 6.796875 -39.171875 L 4.316406 -39.171875 L 4.316406 0 L 12.140625 0 L 12.140625 -21.527344 L 22.011719 -11.167969 L 31.886719 -21.527344 L 31.832031 0 L 39.65625 0 L 39.65625 -39.171875 L 37.230469 -39.171875 Z M 22.011719 -22.230469 "/></g></g></g><g fill="#ffffff" fill-opacity="1"><g transform="translate(305.329139, 586.528118)"><g><path d="M 0.863281 0 L 9.605469 0 L 11.113281 -4.15625 L 23.902344 -4.15625 L 25.464844 0 L 34.152344 0 L 17.914062 -39.980469 L 17.105469 -39.980469 Z M 13.921875 -11.382812 L 17.535156 -21.421875 L 21.042969 -11.382812 Z M 13.921875 -11.382812 "/></g></g></g><g fill="#ffffff" fill-opacity="1"><g transform="translate(344.71549, 586.528118)"><g/></g></g><g fill="#ffffff" fill-opacity="1"><g transform="translate(364.193127, 586.528118)"><g><path d="M 2.535156 -2.480469 C 7.769531 0.214844 12.570312 0.484375 14.730469 0.324219 C 21.960938 -0.0546875 26.382812 -4.964844 26.382812 -11.382812 C 26.382812 -17.535156 21.203125 -20.988281 15.214844 -23.199219 C 13.003906 -23.957031 11.113281 -24.925781 10.898438 -27.085938 C 10.738281 -29.242188 11.976562 -31.238281 14.730469 -31.402344 C 15.917969 -31.457031 18.34375 -31.507812 22.605469 -29.78125 L 23.578125 -37.230469 C 18.613281 -38.957031 15.96875 -38.957031 13.972656 -38.847656 C 7.554688 -38.523438 3.074219 -33.558594 3.074219 -27.085938 C 3.074219 -20.609375 8.472656 -17.535156 14.515625 -15.324219 C 16.671875 -14.566406 18.34375 -13.597656 18.507812 -11.382812 C 18.722656 -9.28125 16.78125 -7.660156 14.515625 -7.5 C 12.734375 -7.335938 7.929688 -7.445312 3.507812 -10.574219 Z M 2.535156 -2.480469 "/></g></g></g><g fill="#ffffff" fill-opacity="1"><g transform="translate(396.889284, 586.528118)"><g><path d="M 31.292969 0 L 31.292969 -38.578125 L 23.578125 -38.578125 L 23.578125 -23.148438 L 12.03125 -23.148438 L 12.03125 -38.578125 L 4.316406 -38.578125 L 4.316406 0 L 12.03125 0 L 12.03125 -15.429688 L 23.578125 -15.429688 L 23.578125 0 Z M 31.292969 0 "/></g></g></g><g fill="#ffffff" fill-opacity="1"><g transform="translate(436.70726, 586.528118)"><g><path d="M 22.875 0.539062 C 49.421875 0.539062 49.421875 -39.226562 22.875 -39.226562 C -3.667969 -39.226562 -3.667969 0.539062 22.875 0.539062 Z M 22.875 -7.445312 C 7.445312 -7.445312 7.445312 -31.292969 22.875 -31.292969 C 38.308594 -31.292969 38.308594 -7.445312 22.875 -7.445312 Z M 22.875 -7.445312 "/></g></g></g><g fill="#ffffff" fill-opacity="1"><g transform="translate(486.560537, 586.528118)"><g><path d="M 12.03125 0 L 12.03125 -14.730469 L 19.476562 -14.730469 C 34.421875 -14.730469 34.476562 -38.523438 19.476562 -38.523438 L 4.316406 -38.523438 L 4.316406 0 Z M 12.03125 -22.230469 L 12.03125 -30.863281 L 18.832031 -30.863281 C 24.011719 -30.863281 24.011719 -22.230469 18.832031 -22.230469 Z M 12.03125 -22.230469 "/></g></g></g><g fill="#ffffff" fill-opacity="1"><g transform="translate(523.24924, 586.528118)"><g><path d="M 12.03125 0 L 12.03125 -14.730469 L 19.476562 -14.730469 C 34.421875 -14.730469 34.476562 -38.523438 19.476562 -38.523438 L 4.316406 -38.523438 L 4.316406 0 Z M 12.03125 -22.230469 L 12.03125 -30.863281 L 18.832031 -30.863281 C 24.011719 -30.863281 24.011719 -22.230469 18.832031 -22.230469 Z M 12.03125 -22.230469 "/></g></g></g><g fill="#ffffff" fill-opacity="1"><g transform="translate(559.937944, 586.528118)"><g><path d="M 12.03125 0 L 12.03125 -38.578125 L 4.316406 -38.578125 L 4.316406 0 Z M 12.03125 0 "/></g></g></g><g fill="#ffffff" fill-opacity="1"><g transform="translate(580.494645, 586.528118)"><g><path d="M 12.03125 -20.988281 L 31.5625 0.808594 L 33.613281 0.808594 L 33.613281 -38.523438 L 25.84375 -38.523438 L 25.84375 -16.726562 L 6.367188 -39.386719 L 4.316406 -39.386719 L 4.316406 0 L 12.03125 0 Z M 12.03125 -20.988281 "/></g></g></g><g fill="#ffffff" fill-opacity="1"><g transform="translate(622.632613, 586.528118)"><g><path d="M 32.15625 -2.375 L 32.15625 -19.316406 L 24.332031 -19.316406 L 24.332031 -7.714844 C 23.632812 -7.609375 22.875 -7.5 22.175781 -7.5 C 7.285156 -7.5 6.582031 -30.539062 22.175781 -31.078125 C 26.277344 -31.1875 28.757812 -30.324219 30.269531 -29.675781 L 31.1875 -37.5 C 30.484375 -37.714844 26.761719 -39.0625 22.175781 -38.902344 C -4.585938 -37.929688 -3.292969 0.214844 22.175781 0.214844 C 25.84375 0.214844 29.191406 -0.703125 32.15625 -2.375 Z M 32.15625 -2.375 "/></g></g></g><path stroke-linecap="butt" transform="matrix(0.75, 0, 0, 0.75, 39.214623, 664.426979)" fill="none" stroke-linejoin="miter" d="M 226.979472 64.836948 L 226.979472 42.253614 L 216.54718 42.253614 L 216.54718 57.70674 C 215.620097 57.847365 214.614888 58.008823 213.666971 58.008823 C 193.82322 58.008823 192.890929 27.290072 213.666971 26.566113 C 219.146138 26.425488 222.448222 27.571322 224.469055 28.430697 L 225.682597 17.998404 C 224.750305 17.717154 219.79718 15.925488 213.666971 16.133821 C 177.995095 17.435904 179.719053 68.279657 213.666971 68.279657 C 218.568013 68.279657 223.031555 67.071324 226.979472 64.836948 Z M 239.224264 67.998407 L 250.86489 67.998407 L 252.885723 62.467157 L 269.943016 62.467157 L 272.015933 67.998407 L 283.604475 67.998407 L 261.948224 14.696321 L 260.859682 14.696321 Z M 256.625307 52.826531 L 261.437807 39.441114 L 266.109682 52.826531 Z M 319.927393 38.352572 L 299.640934 15.764029 L 296.338851 15.764029 L 296.338851 67.998407 L 306.771143 67.998407 L 306.771143 39.300489 L 319.927393 53.107781 L 333.099269 39.300489 L 333.031561 67.998407 L 343.463853 67.998407 L 343.463853 15.764029 L 340.213853 15.764029 Z M 355.979479 67.998407 L 367.625313 67.998407 L 369.640938 62.467157 L 386.69823 62.467157 L 388.771147 67.998407 L 400.359689 67.998407 L 378.703438 14.696321 L 377.614896 14.696321 Z M 373.38573 52.826531 L 378.19823 39.441114 L 382.870105 52.826531 Z M 436.693024 64.696323 C 443.666983 68.279657 450.062817 68.649449 452.943025 68.441115 C 462.583651 67.930699 468.484693 61.378615 468.484693 52.826531 C 468.484693 44.623406 461.583651 40.019239 453.588859 37.071322 C 450.640942 36.050489 448.130525 34.769239 447.828442 31.88903 C 447.620108 29.008822 449.27115 26.336947 452.943025 26.128613 C 454.52115 26.060905 457.77115 25.987988 463.443026 28.290072 L 464.745109 18.368196 C 458.120109 16.066113 454.594067 16.066113 451.937817 16.206738 C 443.370108 16.628613 437.396149 23.248405 437.396149 31.88903 C 437.396149 40.514031 444.599275 44.623406 452.661775 47.571323 C 455.541984 48.576531 457.77115 49.873406 457.979484 52.826531 C 458.260734 55.618198 455.682609 57.779656 452.661775 58.008823 C 450.286775 58.217156 443.875316 58.076531 437.974274 53.89424 Z M 518.630528 67.998407 L 518.630528 16.555696 L 508.338861 16.555696 L 508.338861 37.13903 L 492.932611 37.13903 L 492.932611 16.555696 L 482.661777 16.555696 L 482.661777 67.998407 L 492.932611 67.998407 L 492.932611 47.430698 L 508.338861 47.430698 L 508.338861 67.998407 Z M 560.500322 68.722365 C 595.890949 68.722365 595.890949 15.696321 560.500322 15.696321 C 525.088862 15.696321 525.088862 68.722365 560.500322 68.722365 Z M 560.500322 58.076531 C 539.91178 58.076531 539.91178 26.269238 560.500322 26.269238 C 581.062823 26.269238 581.062823 58.076531 560.500322 58.076531 Z M 612.495117 67.998407 L 612.495117 48.362989 L 622.437825 48.362989 C 642.354493 48.362989 642.42741 16.628613 622.437825 16.628613 L 602.224283 16.628613 L 602.224283 67.998407 Z M 612.495117 38.352572 L 612.495117 26.847363 L 621.57845 26.847363 C 628.479492 26.847363 628.479492 38.352572 621.57845 38.352572 Z M 661.416994 67.998407 L 661.416994 48.362989 L 671.354494 48.362989 C 691.271162 48.362989 691.344079 16.628613 671.354494 16.628613 L 651.140952 16.628613 L 651.140952 67.998407 Z M 661.416994 38.352572 L 661.416994 26.847363 L 670.495119 26.847363 C 677.396161 26.847363 677.396161 38.352572 670.495119 38.352572 Z M 710.333663 67.998407 L 710.333663 16.555696 L 700.057621 16.555696 L 700.057621 67.998407 Z M 737.739915 40.019239 L 763.786791 69.071324 L 766.526374 69.071324 L 766.526374 16.628613 L 756.166999 16.628613 L 756.166999 45.696323 L 730.187831 15.482779 L 727.469081 15.482779 L 727.469081 67.998407 L 737.739915 67.998407 Z M 820.760752 64.836948 L 820.760752 42.253614 L 810.32846 42.253614 L 810.32846 57.70674 C 809.401376 57.847365 808.396168 58.008823 807.448251 58.008823 C 787.6045 58.008823 786.672209 27.290072 807.448251 26.566113 C 812.927418 26.425488 816.229502 27.571322 818.250335 28.430697 L 819.463877 17.998404 C 818.531585 17.717154 813.57846 15.925488 807.448251 16.133821 C 771.776375 17.435904 773.500333 68.279657 807.448251 68.279657 C 812.349293 68.279657 816.812835 67.071324 820.760752 64.836948 Z M 820.760752 64.836948 " stroke="#ffffff" stroke-width="2.698009" stroke-opacity="1" stroke-miterlimit="4"/></svg>